# xmcd CD database file
#
# Track frame offsets:
#	182
#	33022
#	55337
#	87492
#	117097
#	133920
#	148447
#	159840
#	170480
#	208735
#	232315
#
# Disc length: 3336 seconds
#
# Revision: 5
# Processed by: cddbd v1.5.2PL0 Copyright (c) Steve Scherf et al.
# Submitted via: CDex 1.99
#
DISCID=a10d060b
DTITLE=Rene Clemencic, Clemencic Consort - Troubadours - Cantigas de Santa Maria CD3
DYEAR=1995
DGENRE=Renaissance
TTITLE0=Prologue: Porque Trobar
TTITLE1=Cantiga 2: Muito devemos varoes
TTITLE2=Cantiga 30: Muito valueras mais
TTITLE3=Cantiga 264: Pois aos seus que ama
TTITLE4=Cantiga 5 and 59 (Instrumentale)
TTITLE5=Cantiga 47: - Virgen Santa Maria, guarda-nos
TTITLE6=Cantiga 322 (Instrumentale)
TTITLE7=Cantiga 37 (Instrumentale)
TTITLE8=Cantiga 340: Virgen, madre gloriosa
TTITLE9=Cantiga 166 (Instrumentale)
TTITLE10=Cantiga 100 (Vesion I): Santa Maria, strela do dia
EXTD=YEAR: 1995
EXTT0=
EXTT1=
EXTT2=
EXTT3=
EXTT4=
EXTT5=
EXTT6=
EXTT7=
EXTT8=
EXTT9=
EXTT10=
PLAYORDER=
